<?xml version="1.0" ?><!DOCTYPE svg  PUBLIC '-//W3C//DTD SVG 1.1//EN'  'http://www.w3.org/Graphics/SVG/1.1/DTD/svg11.dtd'><svg enable-background="new 0 0 30 30" height="30px" id="YouTube" version="1.1" viewBox="0 0 30 30" width="30px" xml:space="preserve" xmlns="http://www.w3.org/2000/svg" xmlns:xlink="http://www.w3.org/1999/xlink"><g id="_x5B____x3E___x5D_"><g><path d="M29.699,8.539c0,0-0.293-2.067-1.191-2.979c-1.141-1.194-2.42-1.2-3.006-1.271C21.303,3.986,15,3.986,15,3.986    s-6.304,0-10.502,0.304C3.912,4.36,2.633,4.366,1.492,5.561C0.592,6.472,0.3,8.539,0.3,8.539S0,10.559,0,12.986v3.001    c0,2.427,0.3,4.539,0.3,4.539s0.292,2.066,1.192,2.977c1.141,1.195,2.64,1.158,3.308,1.283c2.4,0.23,10.2,0.201,10.2,0.201    s6.303,0.09,10.502-0.213c0.586-0.07,1.865-0.076,3.006-1.271c0.898-0.91,1.191-2.977,1.191-2.977S30,18.415,30,15.988v-3.001    C30,10.559,29.699,8.539,29.699,8.539z M11,18.493v-8l8,4L11,18.493z"/></g></g></svg>